<?xml version="1.0" standalone="no"?>
<!DOCTYPE svg PUBLIC "-//W3C//DTD SVG 20010904//EN"
 "http://www.w3.org/TR/2001/REC-SVG-20010904/DTD/svg10.dtd">
<svg version="1.0" xmlns="http://www.w3.org/2000/svg"
 width="1024.000000pt" height="1024.000000pt" viewBox="0 0 1024.000000 1024.000000"
 preserveAspectRatio="xMidYMid meet">

<g transform="translate(0.000000,1024.000000) scale(0.100000,-0.100000)"
fill="#000000" stroke="none">
<path d="M514 6659 c-11 -6 -28 -23 -37 -39 -16 -26 -17 -138 -17 -1420 l0
-1392 34 -34 34 -34 4588 0 c4531 0 4589 0 4621 20 21 12 36 32 43 57 8 27 10
435 8 1415 l-3 1378 -28 27 -27 28 -4598 2 c-3081 1 -4604 -2 -4618 -8z m1819
-659 c74 -23 152 -85 193 -155 47 -82 54 -158 54 -623 0 -248 -5 -454 -11
-492 -12 -80 -50 -164 -92 -208 -94 -98 -276 -132 -442 -82 -89 26 -164 101
-207 207 l-23 58 0 505 c0 460 2 510 18 562 37 116 118 199 226 232 70 22 206
20 284 -4z m6727 4 c168 -50 250 -181 250 -401 l0 -74 -127 3 -128 3 -5 85
c-8 126 -35 160 -125 160 -67 0 -110 -27 -124 -77 -12 -41 -16 -907 -5 -962
22 -106 186 -121 236 -21 15 29 18 62 18 187 l0 152 -62 3 -63 3 0 110 0 110
193 3 194 2 -4 -287 c-4 -232 -8 -298 -21 -338 -54 -163 -179 -249 -367 -249
-194 0 -318 82 -373 248 -19 57 -21 91 -25 493 -4 478 2 570 44 664 37 82 114
152 197 178 79 25 221 28 297 5z m-7692 -14 c139 -18 245 -96 293 -216 23 -56
24 -71 24 -264 0 -192 -2 -209 -24 -264 -58 -145 -190 -216 -403 -216 l-68 0
0 -294 c0 -259 -2 -295 -16 -300 -20 -8 -208 -8 -228 0 -14 6 -16 83 -16 778
0 425 3 776 7 779 10 10 348 8 431 -3z m1852 -9 c71 -22 144 -74 182 -131 57
-85 63 -119 63 -345 0 -186 -2 -204 -23 -258 -28 -69 -98 -144 -164 -176 -54
-25 -141 -41 -240 -41 l-68 0 -2 -297 -3 -298 -105 -3 c-58 -2 -115 0 -127 3
l-23 5 0 774 c0 425 3 776 8 780 11 12 461 0 502 -13z m564 11 c2 -4 21 -142
41 -307 73 -594 82 -660 89 -635 3 14 35 229 70 477 36 249 67 457 71 463 8
13 252 14 259 1 3 -5 26 -159 50 -343 25 -183 55 -403 68 -488 27 -184 16
-227 97 378 33 244 63 447 66 452 4 6 58 10 121 10 98 0 116 -2 121 -17 6 -17
0 -59 -107 -743 -32 -206 -73 -467 -90 -580 -18 -113 -36 -211 -42 -217 -12
-15 -244 -18 -266 -5 -8 6 -31 146 -67 403 -30 217 -60 430 -67 474 l-12 80
-12 -65 c-7 -36 -38 -247 -70 -470 -31 -223 -62 -411 -67 -417 -10 -13 -210
-19 -253 -7 -24 6 -14 -48 -124 679 -33 220 -77 503 -96 629 -19 126 -33 235
-30 242 4 11 33 14 125 14 66 0 122 -4 125 -8z m1598 -87 c9 -49 35 -191 58
-315 23 -124 80 -429 126 -679 47 -249 83 -459 80 -467 -7 -19 -228 -20 -244
-1 -5 6 -18 67 -28 134 l-17 122 -139 3 -138 3 -5 -30 c-3 -16 -12 -75 -21
-130 -8 -55 -21 -103 -27 -107 -7 -4 -63 -8 -125 -8 -95 0 -114 3 -119 16 -3
9 10 107 31 218 20 110 70 383 110 606 41 223 82 448 91 500 9 52 23 125 31
163 l16 68 151 -3 152 -3 17 -90z m833 85 c176 -26 275 -124 306 -304 15 -90
6 -333 -15 -401 -19 -62 -65 -119 -117 -146 -29 -14 -39 -25 -35 -37 3 -9 37
-123 76 -252 39 -129 82 -271 96 -314 14 -44 23 -85 20 -93 -4 -10 -33 -13
-118 -12 -62 0 -122 4 -132 8 -16 6 -32 55 -81 247 -34 131 -71 271 -81 309
l-19 70 -48 3 -47 3 0 -315 0 -316 -22 -5 c-13 -3 -70 -5 -128 -3 l-105 3 -3
770 c-1 424 0 776 3 783 6 15 345 17 450 2z m709 -6 c3 -9 6 -289 6 -623 0
-410 4 -618 11 -639 14 -41 85 -77 133 -68 48 9 84 41 96 84 6 23 10 259 10
644 l0 608 23 5 c12 3 69 5 127 3 l105 -3 3 -618 c2 -537 0 -627 -14 -680 -43
-167 -134 -251 -301 -277 -74 -12 -129 -7 -224 21 -88 25 -155 84 -195 171
l-29 63 -3 649 c-1 358 0 656 2 663 4 10 35 13 125 13 99 0 120 -3 125 -16z
m965 -81 c64 -208 210 -700 221 -743 6 -25 14 -52 18 -60 4 -8 9 190 12 440
l5 455 120 0 120 0 3 -769 c1 -521 -1 -773 -8 -781 -15 -18 -253 -21 -267 -3
-10 12 -64 188 -227 738 l-55 185 -3 -465 -3 -465 -120 0 -120 0 -3 770 c-1
424 0 776 3 783 3 9 41 12 139 12 l135 0 30 -97z"/>
<path d="M2131 5767 c-13 -6 -33 -24 -44 -38 -18 -26 -19 -47 -21 -505 -1
-466 0 -480 19 -514 30 -50 89 -70 147 -50 22 8 51 28 62 43 21 28 21 37 21
505 0 520 -1 529 -56 557 -34 18 -95 19 -128 2z"/>
<path d="M1190 5514 l0 -246 79 3 c92 5 127 24 147 80 16 45 17 282 1 329 -19
56 -66 80 -153 80 l-74 0 0 -246z"/>
<path d="M2970 5514 l0 -246 84 3 c137 6 156 36 156 250 0 207 -23 239 -169
239 l-71 0 0 -246z"/>
<path d="M5207 5543 c-2 -26 -23 -166 -46 -311 -23 -145 -41 -272 -41 -283 0
-18 8 -19 101 -19 l101 0 -6 28 c-12 59 -86 561 -86 583 0 50 -17 51 -23 2z"/>
<path d="M6020 5520 l0 -240 71 0 c84 0 127 17 154 63 17 26 21 55 23 162 4
155 -7 198 -57 232 -28 19 -47 23 -112 23 l-79 0 0 -240z"/>
</g>
</svg>
