<svg xmlns="http://www.w3.org/2000/svg" width="1024" height="1024" viewBox="0 0 1024 1024" version="1.1"><path d="M 49.310 359.409 C 46.803 361.566, 46.453 362.642, 45.972 369.659 C 45.677 373.972, 45.481 437.125, 45.537 510 C 45.615 611.962, 45.919 643.019, 46.854 644.750 C 47.523 645.988, 49.249 647.772, 50.689 648.716 C 53.152 650.330, 79.638 650.436, 497.904 650.513 C 742.432 650.558, 949.401 650.349, 957.836 650.048 L 973.171 649.500 976.086 646.234 L 979 642.968 979 503.918 C 979 403.476, 978.690 364.262, 977.883 362.684 C 977.269 361.483, 975.806 359.723, 974.633 358.772 C 972.619 357.141, 946.821 357.043, 512.306 357.022 L 52.112 357 49.310 359.409 M 206.734 423.027 C 192.508 426.610, 183.800 437.177, 181.035 454.213 C 179.678 462.580, 179.698 542.528, 181.060 551 C 183.208 564.362, 189.140 572.974, 199.815 578.229 C 206.248 581.397, 206.855 581.500, 219 581.500 C 231.162 581.500, 231.745 581.400, 238.229 578.208 C 249.145 572.834, 254.817 564.182, 257.158 549.338 C 257.723 545.753, 257.981 524.209, 257.776 497.838 C 257.431 453.618, 257.366 452.329, 255.112 445.558 C 253.183 439.763, 251.785 437.615, 246.650 432.558 C 238.776 424.802, 233.835 422.887, 220.500 422.425 C 215 422.235, 208.806 422.505, 206.734 423.027 M 879.746 423.025 C 869.325 425.649, 860.867 432.640, 856.473 442.262 C 852.627 450.686, 851.674 467.262, 852.378 513.500 C 853.021 555.709, 853.386 558.438, 859.621 567.651 C 865.383 576.165, 873.042 580.421, 885.430 581.991 C 894.944 583.197, 903.652 581.842, 911.793 577.889 C 919.590 574.102, 924.886 567.755, 928.161 558.273 C 930.396 551.801, 930.500 550.256, 930.500 523.500 L 930.500 495.500 911.500 495.500 L 892.500 495.500 892.500 506.500 L 892.500 517.500 898.750 517.798 L 905 518.095 905 533.080 C 905 548.905, 904.196 552.790, 900.179 556.368 C 897.326 558.910, 890.316 559.577, 885.892 557.728 C 878.985 554.842, 879 554.962, 879 502.567 C 879 451.368, 879.086 450.558, 884.872 447.566 C 888.772 445.549, 896.900 445.541, 899.770 447.551 C 903.404 450.097, 904.474 453.052, 905 462 L 905.500 470.500 918.393 470.781 L 931.286 471.062 930.751 460.281 C 929.844 442.029, 924.332 432.243, 911.363 425.858 C 905.431 422.937, 903.854 422.617, 894.166 422.362 C 888.300 422.207, 881.811 422.506, 879.746 423.025 M 93.667 424.667 C 93.300 425.033, 93 460.133, 93 502.667 L 93 580 106 580 L 119 580 119 550.650 L 119 521.301 130.012 520.632 C 142.440 519.877, 149.638 517.683, 156.261 512.632 C 166.315 504.963, 169.401 494.181, 168.748 469 C 168.242 449.467, 166.580 443.673, 159.230 435.815 C 152.055 428.144, 145.965 425.829, 130.500 424.893 C 114.215 423.907, 94.547 423.786, 93.667 424.667 M 272.750 424.750 C 271.102 425.124, 271 429.651, 271 502.573 L 271 580 284 580 L 297 580 297 550.650 L 297 521.301 308.021 520.631 C 325.219 519.587, 333.963 515.560, 340.503 505.674 C 345.397 498.276, 346.968 490.309, 346.985 472.799 C 347.001 456.648, 345.967 449.915, 342.376 442.783 C 338.100 434.294, 328.684 427.070, 319.945 425.574 C 315.889 424.880, 275.303 424.171, 272.750 424.750 M 353.442 425.093 C 352.990 425.825, 369.797 539.348, 374.747 569 L 376.500 579.500 390.405 579.500 L 404.310 579.500 409.093 546.078 C 416.688 492.996, 418.225 484.006, 419.108 487.500 C 419.524 489.150, 422.387 509.175, 425.470 532 C 428.553 554.825, 431.333 574.962, 431.649 576.750 L 432.223 580 446.143 580 C 456.371 580, 460.183 579.669, 460.514 578.750 C 460.763 578.063, 463.664 559.950, 466.961 538.500 C 470.259 517.050, 475.252 485.100, 478.058 467.500 C 480.865 449.900, 483.237 433.025, 483.330 430 L 483.500 424.500 471.500 424.500 L 459.500 424.500 458.269 432 C 457.592 436.125, 454.522 458.170, 451.448 480.988 C 448.373 503.806, 445.722 522.612, 445.556 522.777 C 445.153 523.180, 443.887 514.491, 438.498 474.353 C 435.998 455.734, 433.401 436.900, 432.726 432.500 L 431.500 424.500 419.082 424.218 C 412.252 424.063, 406.305 424.295, 405.866 424.734 C 405.250 425.350, 396.282 484.499, 392.332 514 C 392.001 516.475, 391.437 519.059, 391.079 519.742 C 390.722 520.426, 388.704 506.701, 386.596 489.242 C 384.488 471.784, 381.801 450.075, 380.625 441 L 378.488 424.500 366.227 424.374 C 359.483 424.304, 353.730 424.628, 353.442 425.093 M 506.009 426.155 C 505.046 428.337, 479.458 566.360, 478.275 575.750 L 477.740 580 490.751 580 L 503.762 580 505.460 568.750 C 506.394 562.563, 507.368 556.600, 507.625 555.500 C 508.066 553.608, 508.834 553.510, 521.796 553.688 L 535.500 553.876 537.500 566.688 L 539.500 579.500 552.250 579.780 C 560.416 579.959, 565 579.694, 565 579.042 C 565 578.482, 562.103 562.606, 558.562 543.762 C 555.022 524.918, 548.694 490.825, 544.500 468 C 540.307 445.175, 536.432 426.050, 535.889 425.500 C 535.347 424.950, 528.635 424.345, 520.973 424.155 C 507.171 423.812, 507.035 423.831, 506.009 426.155 M 576.697 424.636 C 576.314 425.020, 576 460.147, 576 502.697 L 576 580.060 588.750 579.780 L 601.500 579.500 601.764 548.250 L 602.028 517 606.898 517 C 611.136 517, 611.830 517.291, 612.254 519.250 C 612.957 522.497, 624.843 568.526, 626.586 574.750 L 628.056 580 641.528 580 C 648.938 580, 655 579.724, 655 579.386 C 655 578.929, 639.301 526.336, 635.422 513.797 C 635.042 512.569, 635.989 511.536, 638.822 510.091 C 648.192 505.311, 651.879 496.526, 652.693 477.042 C 653.322 461.989, 652.093 451.265, 648.911 444.055 C 645.323 435.924, 636.360 428.419, 627.500 426.130 C 622.850 424.928, 577.732 423.602, 576.697 424.636 M 668.710 424.697 C 667.008 425.139, 666.934 428.428, 667.210 490.831 L 667.500 556.500 670.090 562 C 675.946 574.434, 683.769 579.847, 698.993 581.999 C 710.917 583.684, 725.565 579.658, 732.839 572.696 C 737.148 568.573, 740.642 561.670, 742.520 553.570 C 743.777 548.150, 743.974 537.347, 743.758 485.811 L 743.500 424.500 733 424.208 C 727.225 424.048, 721.487 424.169, 720.250 424.477 L 718 425.038 718 485.776 C 718 522.285, 717.611 547.871, 717.024 549.917 C 714.822 557.593, 708.364 560.556, 700.436 557.529 C 692.683 554.568, 693.033 557.694, 692.969 490.824 C 692.938 458.196, 692.650 429.813, 692.328 427.750 L 691.744 424 681.122 424.116 C 675.280 424.180, 669.694 424.441, 668.710 424.697 M 759.750 424.689 C 758.102 425.120, 758 429.675, 758 502.573 L 758 580 770.500 580 L 783 580 783.116 533.250 C 783.180 507.538, 783.443 487.400, 783.702 488.500 C 784.123 490.291, 795.139 527.692, 806.383 565.500 L 810.546 579.500 824.523 579.500 L 838.500 579.500 838.500 502 L 838.500 424.500 826.500 424.500 L 814.500 424.500 814 470.500 C 813.563 510.735, 813.335 515.936, 812.180 512 C 811.454 509.525, 808.814 500.525, 806.314 492 C 803.813 483.475, 799.167 467.950, 795.989 457.500 C 792.811 447.050, 789.244 435.238, 788.063 431.250 L 785.915 424 773.708 424.116 C 766.993 424.180, 760.712 424.438, 759.750 424.689 M 213.096 447.265 C 211.774 447.944, 209.749 449.770, 208.596 451.323 C 206.536 454.098, 206.500 454.971, 206.500 502.367 C 206.500 547.388, 206.621 550.772, 208.328 553.377 C 211.980 558.952, 220.421 560.536, 226.102 556.713 C 232.008 552.739, 232.106 551.765, 231.787 500.058 C 231.525 457.509, 231.348 453.276, 229.736 450.904 C 226.562 446.234, 218.524 444.476, 213.096 447.265 M 119 472.503 L 119 497.212 126.932 496.852 C 140.759 496.224, 142.855 492.998, 142.944 472.218 C 143.030 451.850, 141.008 448.719, 127.396 448.147 L 119 447.795 119 472.503 M 297 472.500 L 297 497 305.015 497 C 312.683 497, 313.185 496.858, 316.619 493.710 C 319.990 490.621, 320.260 489.912, 321.048 482.099 C 322.064 472.018, 321.294 458.692, 319.436 454.214 C 317.635 449.874, 312.989 448, 304.032 448 L 297 448 297 472.500 M 602 471.901 L 602 496 609.550 496 C 623.721 496, 626.254 492.766, 626.816 473.960 C 627.238 459.800, 626.230 454.505, 622.432 450.935 C 620.164 448.803, 618.731 448.456, 610.921 448.151 L 602 447.801 602 471.901 M 520.690 469.676 C 520.359 472.879, 518.268 486.949, 516.044 500.943 C 513.820 514.937, 512 527.424, 512 528.693 C 512 530.949, 512.221 531, 522.045 531 L 532.091 531 531.531 527.750 C 529.569 516.349, 522.997 471.259, 522.985 469.110 C 522.952 463.507, 521.284 463.919, 520.690 469.676" stroke="none" fill="#db1428" fill-rule="evenodd"/></svg>